{
  "accessors": [
    {
      "bufferView": 1,
      "componentType": 5126,
      "count": 65532,
      "max": [
        0.6011019945144653,
        0.7738980054855347,
        0.4117777347564697
      ],
      "min": [
        -0.6118574738502502,
        -0.951761782169342,
        -0.6782321929931641
      ],
      "type": "VEC3"
    },
    {
      "bufferView": 1,
      "byteOffset": 786384,
      "componentType": 5126,
      "count": 65532,
      "max": [
        0.9998878240585327,
        0.9999651312828064,
        0.9995692372322083
      ],
      "min": [
        -0.9999997019767761,
        -0.9999971389770508,
        -0.9999846816062927
      ],
      "type": "VEC3"
    },
    {
      "bufferView": 0,
      "componentType": 5125,
      "count": 376260,
      "type": "SCALAR"
    },
    {
      "bufferView": 1,
      "byteOffset": 1572768,
      "componentType": 5126,
      "count": 65532,
      "max": [
        0.6879177093505859,
        0.9518258571624756,
        0.6656095385551453
      ],
      "min": [
        -0.6899154186248779,
        -0.9483736753463745,
        -0.5078009963035583
      ],
      "type": "VEC3"
    },
    {
      "bufferView": 1,
      "byteOffset": 2359152,
      "componentType": 5126,
      "count": 65532,
      "max": [
        0.9999240636825562,
        0.999998152256012,
        0.9999734163284302
      ],
      "min": [
        -0.9999949336051941,
        -0.9999988675117493,
        -0.9999930262565613
      ],
      "type": "VEC3"
    },
    {
      "bufferView": 0,
      "byteOffset": 1505040,
      "componentType": 5125,
      "count": 371346,
      "type": "SCALAR"
    },
    {
      "bufferView": 1,
      "byteOffset": 3145536,
      "componentType": 5126,
      "count": 34309,
      "max": [
        0.6877052783966064,
        0.9483246207237244,
        0.6632127165794373
      ],
      "min": [
        -0.687350332736969,
        -0.9514062404632568,
        -0.6748077869415283
      ],
      "type": "VEC3"
    },
    {
      "bufferView": 1,
      "byteOffset": 3557244,
      "componentType": 5126,
      "count": 34309,
      "max": [
        0.9981855154037476,
        0.9998685121536255,
        0.9999697804450989
      ],
      "min": [
        -0.9999995231628418,
        -1.0,
        -0.9999309778213501
      ],
      "type": "VEC3"
    },
    {
      "bufferView": 0,
      "byteOffset": 2990424,
      "componentType": 5125,
      "count": 139752,
      "type": "SCALAR"
    }
  ],
  "asset": {
    "extras": {
      "author": "slipperyflop (https://sketchfab.com/slipperyflop)",
      "license": "CC-BY-4.0 (http://creativecommons.org/licenses/by/4.0/)",
      "source": "https://sketchfab.com/3d-models/silver-surfer-de761d6ebd754cdda10cb7c20e6c1d92",
      "title": "Silver Surfer"
    },
    "generator": "Sketchfab-16.74.0",
    "version": "2.0"
  },
  "bufferViews": [
    {
      "buffer": 0,
      "byteLength": 3549432,
      "name": "floatBufferViews",
      "target": 34963
    },
    {
      "buffer": 0,
      "byteLength": 3968952,
      "byteOffset": 3549432,
      "byteStride": 12,
      "name": "floatBufferViews",
      "target": 34962
    }
  ],
  "buffers": [
    {
      "byteLength": 7518384,
      "uri": "scene.bin"
    }
  ],
  "materials": [
    {
      "doubleSided": true,
      "name": "Scene_-_Root",
      "pbrMetallicRoughness": {
        "metallicFactor": 0.0,
        "roughnessFactor": 0.6
      }
    }
  ],
  "meshes": [
    {
      "name": "Object_0",
      "primitives": [
        {
          "attributes": {
            "NORMAL": 1,
            "POSITION": 0
          },
          "indices": 2,
          "material": 0,
          "mode": 4
        }
      ]
    },
    {
      "name": "Object_1",
      "primitives": [
        {
          "attributes": {
            "NORMAL": 4,
            "POSITION": 3
          },
          "indices": 5,
          "material": 0,
          "mode": 4
        }
      ]
    },
    {
      "name": "Object_2",
      "primitives": [
        {
          "attributes": {
            "NORMAL": 7,
            "POSITION": 6
          },
          "indices": 8,
          "material": 0,
          "mode": 4
        }
      ]
    }
  ],
  "nodes": [
    {
      "children": [
        1
      ],
      "matrix": [
        1.0,
        0.0,
        0.0,
        0.0,
        0.0,
        2.220446049250313e-16,
        -1.0,
        0.0,
        0.0,
        1.0,
        2.220446049250313e-16,
        0.0,
        0.0,
        0.0,
        0.0,
        1.0
      ],
      "name": "Sketchfab_model"
    },
    {
      "children": [
        2
      ],
      "name": "root"
    },
    {
      "children": [
        3
      ],
      "matrix": [
        1.0,
        0.0,
        0.0,
        0.0,
        0.0,
        2.220446049250313e-16,
        1.0,
        0.0,
        0.0,
        -1.0,
        2.220446049250313e-16,
        0.0,
        0.0,
        0.0,
        0.0,
        1.0
      ],
      "name": "GLTF_SceneRootNode"
    },
    {
      "children": [
        4,
        5,
        6
      ],
      "name": "Mesh1.0_0"
    },
    {
      "mesh": 0,
      "name": "Object_4"
    },
    {
      "mesh": 1,
      "name": "Object_5"
    },
    {
      "mesh": 2,
      "name": "Object_6"
    }
  ],
  "scene": 0,
  "scenes": [
    {
      "name": "Sketchfab_Scene",
      "nodes": [
        0
      ]
    }
  ]
}
